<?xml version="1.0" encoding="iso-8859-1"?>
<!-- Uploaded to: SVG Repo, www.svgrepo.com, Generator: SVG Repo Mixer Tools -->
<svg height="800px" width="800px" version="1.1" id="Layer_1" xmlns="http://www.w3.org/2000/svg" xmlns:xlink="http://www.w3.org/1999/xlink" 
	 viewBox="0 0 512 512" xml:space="preserve">
<g transform="translate(1 1)">
	<g>
		<path style="fill:#FCC309;" d="M347.16,468.333H162.84c-1.707,0-2.56-2.56-0.853-3.413l15.36-11.093
			c16.213-11.947,24.747-33.28,19.627-53.76h116.053l0,0c-5.12,20.48,3.413,41.813,19.627,53.76l15.36,11.093
			C349.72,465.773,348.867,468.333,347.16,468.333"/>
		<path style="fill:#FCC309;" d="M353.133,493.933H156.867c-6.827,0-12.8-5.973-12.8-12.8s5.973-12.8,12.8-12.8h196.267
			c6.827,0,12.8,5.973,12.8,12.8S359.96,493.933,353.133,493.933"/>
		<path style="fill:#FCC309;" d="M472.6,400.067H37.4c-16.213,0-29.867-13.653-29.867-29.867v-46.933h494.933V370.2
			C502.467,386.413,488.813,400.067,472.6,400.067"/>
	</g>
	<path style="fill:#FFDD09;" d="M476.867,323.267H33.133V45.933c0-16.213,13.653-29.867,29.867-29.867h384
		c16.213,0,29.867,13.653,29.867,29.867V323.267z"/>
	<path style="fill:#FFFFFF;" d="M63,16.067H37.4c-16.213,0-29.867,13.653-29.867,29.867v328.533c0,14.507,11.093,25.6,25.6,25.6
		V45.933C33.133,29.72,46.787,16.067,63,16.067"/>
	<path style="fill:#FD9808;" d="M472.6,16.067H447c16.213,0,29.867,13.653,29.867,29.867v354.133h2.56
		c12.8,0,23.04-10.24,23.04-23.04V45.933C502.467,29.72,488.813,16.067,472.6,16.067"/>
	<path style="fill:#54C9FD;" d="M220.867,255H84.333L50.2,280.6V127h170.667V255z"/>
	<path style="fill:#1CD759;" d="M289.133,186.733h136.533l34.133,25.6v-153.6H289.133V186.733z"/>
	<path d="M347.16,476.867H162.84c-4.267,0-8.533-2.56-10.24-7.68c-1.707-4.267,0-9.387,4.267-11.947l15.36-11.093
		c13.653-9.387,20.48-27.307,16.213-44.373l-2.56-10.24h140.8l-5.973,11.093c-3.413,17.067,2.56,34.133,16.213,43.52l15.36,11.093
		c3.413,2.56,5.12,7.68,4.267,11.947C355.693,474.307,351.427,476.867,347.16,476.867z M342.893,471.747L342.893,471.747
		L342.893,471.747z M167.107,471.747L167.107,471.747L167.107,471.747z M183.32,459.8h142.507
		c-15.36-11.947-24.747-31.573-23.04-51.2h-95.573C208.067,428.227,199.533,447.853,183.32,459.8z"/>
	<path d="M472.6,408.6H37.4C16.067,408.6-1,391.533-1,370.2v-55.467h512V370.2C511,391.533,493.933,408.6,472.6,408.6z
		 M16.067,331.8v38.4c0,11.947,9.387,21.333,21.333,21.333h435.2c11.947,0,21.333-9.387,21.333-21.333v-38.4H16.067z"/>
	<path d="M511,331.8H-1V45.933c0-21.333,17.067-38.4,38.4-38.4h435.2c21.333,0,38.4,17.067,38.4,38.4V331.8z M16.067,314.733
		h477.867v-268.8c0-11.947-9.387-21.333-21.333-21.333H37.4c-11.947,0-21.333,9.387-21.333,21.333V314.733z"/>
	<path d="M353.133,502.467H156.867c-11.947,0-21.333-9.387-21.333-21.333s9.387-21.333,21.333-21.333h196.267
		c11.947,0,21.333,9.387,21.333,21.333S365.08,502.467,353.133,502.467z M156.867,476.867c-2.56,0-4.267,1.707-4.267,4.267
		s1.707,4.267,4.267,4.267h196.267c2.56,0,4.267-1.707,4.267-4.267s-1.707-4.267-4.267-4.267H156.867z"/>
	<path d="M84.333,84.333H50.2c-5.12,0-8.533-3.413-8.533-8.533c0-5.12,3.413-8.533,8.533-8.533h34.133
		c5.12,0,8.533,3.413,8.533,8.533C92.867,80.92,89.453,84.333,84.333,84.333z"/>
	<path d="M203.8,84.333h-34.133c-5.12,0-8.533-3.413-8.533-8.533c0-5.12,3.413-8.533,8.533-8.533H203.8
		c5.12,0,8.533,3.413,8.533,8.533C212.333,80.92,208.92,84.333,203.8,84.333z"/>
	<path d="M135.533,84.333h-17.067c-5.12,0-8.533-3.413-8.533-8.533c0-5.12,3.413-8.533,8.533-8.533h17.067
		c5.12,0,8.533,3.413,8.533,8.533C144.067,80.92,140.653,84.333,135.533,84.333z"/>
	<path d="M340.333,272.067H306.2c-5.12,0-8.533-3.413-8.533-8.533c0-5.12,3.413-8.533,8.533-8.533h34.133
		c5.12,0,8.533,3.413,8.533,8.533C348.867,268.653,345.453,272.067,340.333,272.067z"/>
	<path d="M459.8,272.067h-34.133c-5.12,0-8.533-3.413-8.533-8.533c0-5.12,3.413-8.533,8.533-8.533H459.8
		c5.12,0,8.533,3.413,8.533,8.533C468.333,268.653,464.92,272.067,459.8,272.067z"/>
	<path d="M391.533,272.067h-17.067c-5.12,0-8.533-3.413-8.533-8.533c0-5.12,3.413-8.533,8.533-8.533h17.067
		c5.12,0,8.533,3.413,8.533,8.533C400.067,268.653,396.653,272.067,391.533,272.067z"/>
	<path d="M417.133,109.933h-42.667c-5.12,0-8.533-3.413-8.533-8.533c0-5.12,3.413-8.533,8.533-8.533h42.667
		c5.12,0,8.533,3.413,8.533,8.533C425.667,106.52,422.253,109.933,417.133,109.933z"/>
	<path d="M340.333,109.933H331.8c-5.12,0-8.533-3.413-8.533-8.533c0-5.12,3.413-8.533,8.533-8.533h8.533
		c5.12,0,8.533,3.413,8.533,8.533C348.867,106.52,345.453,109.933,340.333,109.933z"/>
	<path d="M365.933,152.6H331.8c-5.12,0-8.533-3.413-8.533-8.533c0-5.12,3.413-8.533,8.533-8.533h34.133
		c5.12,0,8.533,3.413,8.533,8.533C374.467,149.187,371.053,152.6,365.933,152.6z"/>
	<path d="M417.133,152.6h-17.067c-5.12,0-8.533-3.413-8.533-8.533c0-5.12,3.413-8.533,8.533-8.533h17.067
		c5.12,0,8.533,3.413,8.533,8.533C425.667,149.187,422.253,152.6,417.133,152.6z"/>
	<path d="M178.2,178.2h-42.667c-5.12,0-8.533-3.413-8.533-8.533c0-5.12,3.413-8.533,8.533-8.533H178.2
		c5.12,0,8.533,3.413,8.533,8.533C186.733,174.787,183.32,178.2,178.2,178.2z"/>
	<path d="M101.4,178.2h-8.533c-5.12,0-8.533-3.413-8.533-8.533c0-5.12,3.413-8.533,8.533-8.533h8.533
		c5.12,0,8.533,3.413,8.533,8.533C109.933,174.787,106.52,178.2,101.4,178.2z"/>
	<path d="M127,220.867H92.867c-5.12,0-8.533-3.413-8.533-8.533c0-5.12,3.413-8.533,8.533-8.533H127c5.12,0,8.533,3.413,8.533,8.533
		C135.533,217.453,132.12,220.867,127,220.867z"/>
	<path d="M178.2,220.867h-17.067c-5.12,0-8.533-3.413-8.533-8.533c0-5.12,3.413-8.533,8.533-8.533H178.2
		c5.12,0,8.533,3.413,8.533,8.533C186.733,217.453,183.32,220.867,178.2,220.867z"/>
	<path d="M50.2,289.133c-1.707,0-2.56,0-3.413-0.853c-3.413-1.707-5.12-4.267-5.12-7.68V127c0-5.12,3.413-8.533,8.533-8.533h170.667
		c5.12,0,8.533,3.413,8.533,8.533v128c0,5.12-3.413,8.533-8.533,8.533H86.893L55.32,287.427
		C53.613,288.28,51.907,289.133,50.2,289.133z M58.733,135.533v128l20.48-15.36c1.707-0.853,3.413-1.707,5.12-1.707h128V135.533
		H58.733z"/>
	<path d="M459.8,220.867c-1.707,0-3.413-0.853-5.12-1.707l-31.573-23.893H289.133c-5.12,0-8.533-3.413-8.533-8.533v-128
		c0-5.12,3.413-8.533,8.533-8.533H459.8c5.12,0,8.533,3.413,8.533,8.533v153.6c0,3.413-1.707,5.973-5.12,7.68
		C462.36,220.867,461.507,220.867,459.8,220.867z M297.667,178.2h128c1.707,0,3.413,0.853,5.12,1.707l20.48,15.36v-128h-153.6V178.2
		z"/>
</g>
</svg>